<svg xmlns="http://www.w3.org/2000/svg" viewBox="0 0 512 512" role="img" aria-label="PCB Enclosure Generator icon">
  <rect width="512" height="512" rx="96" fill="#1f2937"/>
  <path d="M132 164h248a36 36 0 0 1 36 36v160a36 36 0 0 1-36 36H132a36 36 0 0 1-36-36V200a36 36 0 0 1 36-36Z" fill="#e5e7eb"/>
  <path d="M148 188h216a28 28 0 0 1 28 28v112a28 28 0 0 1-28 28H148a28 28 0 0 1-28-28V216a28 28 0 0 1 28-28Z" fill="#10b981"/>
  <path d="M168 216h176v28H168zm0 56h112v24H168zm0 52h144v20H168z" fill="#064e3b"/>
  <circle cx="164" cy="180" r="16" fill="#374151"/>
  <circle cx="348" cy="180" r="16" fill="#374151"/>
  <circle cx="164" cy="372" r="16" fill="#374151"/>
  <circle cx="348" cy="372" r="16" fill="#374151"/>
  <path d="M92 132h328a44 44 0 0 1 44 44v208a44 44 0 0 1-44 44H92a44 44 0 0 1-44-44V176a44 44 0 0 1 44-44Zm16 36a24 24 0 0 0-24 24v176a24 24 0 0 0 24 24h296a24 24 0 0 0 24-24V192a24 24 0 0 0-24-24Z" fill="#60a5fa"/>
  <path d="M416 252h48v56h-48z" fill="#93c5fd"/>
</svg>
